<svg width="23" height="23" viewBox="0 0 23 23" fill="none" xmlns="http://www.w3.org/2000/svg">
<path d="M15.2872 4.95131L15.2874 4.95146L15.2873 4.9516L15.2874 4.95165L15.2875 4.95182M15.2875 4.95182L15.2871 4.95203M15.2875 4.95182L15.2871 4.95203M15.2875 4.95182L15.2876 4.95199L15.1821 5.13696L15.2871 4.95204M15.2871 4.95203L15.2871 4.95204M15.2871 4.95203L15.2871 4.95204M15.2871 4.95203L15.2871 4.95204M11.5079 5.18064L11.5079 5.18072L18.3749 11.6622L17.7783 11.386C17.7783 11.386 17.7783 11.386 17.7783 11.386C17.7624 11.4203 17.7392 11.4505 17.7103 11.4747L17.6532 11.5117L15.9981 12.4416L15.9978 12.4418C14.1161 13.5003 12.6024 15.1081 11.6592 17.0502L11.6591 17.0501L11.6544 17.0604L11.5125 17.366L11.5124 17.3659L11.5079 17.376L10.5661 19.4955C10.4842 19.6797 10.2301 19.6986 10.1232 19.5402L10.0909 19.4778L9.15698 17.376L9.15695 17.3759C8.2801 15.4033 6.82192 13.7454 4.97738 12.6239L4.97742 12.6238L4.96863 12.6186L4.67756 12.4478L4.67762 12.4477L4.66693 12.4417L2.99466 11.5016L2.99364 11.501C2.95642 11.4802 2.92501 11.4504 2.90227 11.4143L2.34612 11.7648L2.90227 11.4143C2.87953 11.3782 2.86618 11.337 2.86344 11.2945C2.8607 11.2519 2.86865 11.2093 2.88658 11.1706C2.90246 11.1363 2.92572 11.1061 2.95462 11.0819L3.01173 11.0449L4.6668 10.115L4.66708 10.1148C6.54882 9.05633 8.0625 7.44851 9.00566 5.5064L9.00575 5.50645L9.01052 5.49616L9.15244 5.19063L9.15252 5.19067L9.15698 5.18064L10.0988 3.0611C10.1807 2.8769 10.4347 2.85796 10.5417 3.01639L10.5739 3.07877L11.5079 5.18064ZM19.9458 4.76544C20.0904 4.8468 20.0904 5.0547 19.9458 5.13605L17.9307 2.69261C18.3313 3.44622 18.9119 4.08936 19.6209 4.56457C19.621 4.56467 19.6211 4.56477 19.6213 4.56487C19.623 4.56602 19.6247 4.56717 19.6264 4.56832C19.7302 4.63768 19.8367 4.70345 19.9458 4.76544Z" stroke="#9391A8" stroke-width="1.31481"/>
</svg>
