<svg width="25" height="25" viewBox="0 0 25 25" fill="none" xmlns="http://www.w3.org/2000/svg">
<path fill-rule="evenodd" clip-rule="evenodd" d="M11.2361 3.90286C11.2361 3.35824 11.6776 2.91675 12.2223 2.91675C17.6684 2.91675 22.0834 7.33172 22.0834 12.7779C22.0834 18.224 17.6684 22.639 12.2223 22.639C6.77611 22.639 2.36115 18.224 2.36115 12.7779C2.36115 12.2332 2.80264 11.7917 3.34726 11.7917C3.89187 11.7917 4.33337 12.2332 4.33337 12.7779C4.33337 17.1348 7.86534 20.6667 12.2223 20.6667C16.5792 20.6667 20.1111 17.1348 20.1111 12.7779C20.1111 8.42095 16.5792 4.88897 12.2223 4.88897C11.6776 4.88897 11.2361 4.44747 11.2361 3.90286Z" fill="#9391A8"/>
<path fill-rule="evenodd" clip-rule="evenodd" d="M11.2361 8.83352C11.2361 8.28891 11.6776 7.84741 12.2223 7.84741C14.9453 7.84741 17.1528 10.0549 17.1528 12.778C17.1528 15.501 14.9453 17.7085 12.2223 17.7085C11.6776 17.7085 11.2361 17.267 11.2361 16.7224C11.2361 16.1778 11.6776 15.7363 12.2223 15.7363C13.8561 15.7363 15.1806 14.4118 15.1806 12.778C15.1806 11.1441 13.8561 9.81963 12.2223 9.81963C11.6776 9.81963 11.2361 9.37814 11.2361 8.83352Z" fill="#9391A8"/>
</svg>
