<svg width="25" height="24" viewBox="0 0 25 24" fill="none" xmlns="http://www.w3.org/2000/svg">
<path fill-rule="evenodd" clip-rule="evenodd" d="M15.2626 2.2758C14.8063 2.16626 14.3332 2.16648 13.707 2.16678L10.3986 2.16681C9.60484 2.1668 8.94971 2.16679 8.41603 2.21039C7.86174 2.25568 7.35221 2.35287 6.87362 2.59673C6.13142 2.9749 5.528 3.57832 5.14983 4.32051C4.90597 4.79911 4.80878 5.30864 4.76349 5.86293C4.71989 6.3966 4.7199 7.05173 4.71991 7.84551V16.2103C4.7199 17.0041 4.71989 17.6592 4.76349 18.1929C4.80878 18.7472 4.90597 19.2567 5.14983 19.7353C5.528 20.4775 6.13142 21.0809 6.87362 21.4591C7.35221 21.703 7.86174 21.8002 8.41603 21.8455C8.9497 21.8891 9.60483 21.889 10.3986 21.889H14.819C15.6128 21.889 16.2679 21.8891 16.8016 21.8455C17.3559 21.8002 17.8654 21.703 18.344 21.4591C19.0862 21.0809 19.6896 20.4775 20.0678 19.7353C20.3116 19.2567 20.4088 18.7472 20.4541 18.1929C20.4977 17.6592 20.4977 17.0041 20.4977 16.2103L20.4977 8.95751C20.498 8.33134 20.4982 7.8582 20.3887 7.40194C20.2921 6.99946 20.1327 6.6147 19.9164 6.26178C19.6713 5.8617 19.3366 5.5273 18.8936 5.08474L17.5798 3.77093C17.1372 3.32795 16.8028 2.99324 16.4027 2.74806C16.0498 2.53179 15.665 2.37242 15.2626 2.2758ZM13.5949 4.13903H10.4394C9.59467 4.13903 9.02047 4.1398 8.57663 4.17606C8.1443 4.21138 7.92321 4.27541 7.76899 4.35399C7.39789 4.54308 7.09618 4.84479 6.90709 5.21588C6.82851 5.37011 6.76449 5.5912 6.72916 6.02353C6.6929 6.46737 6.69213 7.04157 6.69213 7.88625V16.1696C6.69213 17.0143 6.6929 17.5885 6.72916 18.0323C6.76449 18.4646 6.82851 18.6857 6.90709 18.84C7.09618 19.2111 7.39789 19.5128 7.76899 19.7019C7.92321 19.7804 8.1443 19.8445 8.57663 19.8798C9.02047 19.916 9.59467 19.9168 10.4394 19.9168H14.7782C15.6229 19.9168 16.1971 19.916 16.641 19.8798C17.0733 19.8445 17.2944 19.7804 17.4486 19.7019C17.8197 19.5128 18.1214 19.2111 18.3105 18.84C18.3891 18.6857 18.4531 18.4646 18.4884 18.0323C18.5247 17.5885 18.5255 17.0143 18.5255 16.1696V9.06959H16.5532C14.9194 9.06959 13.5949 7.7451 13.5949 6.11125V4.13903ZM18.0916 7.09736C17.973 6.95723 17.7838 6.76416 17.4279 6.40829L16.2562 5.23657C15.9003 4.8807 15.7073 4.69145 15.5671 4.57294V6.11125C15.5671 6.65587 16.0086 7.09736 16.5532 7.09736H18.0916Z" fill="white"/>
<path d="M9.65045 12.0278C9.10583 12.0278 8.66434 12.4693 8.66434 13.0139C8.66434 13.5586 9.10583 14.0001 9.65045 14.0001H15.5671C16.1117 14.0001 16.5532 13.5586 16.5532 13.0139C16.5532 12.4693 16.1117 12.0278 15.5671 12.0278H9.65045Z" fill="white"/>
<path d="M9.65045 15.9723C9.10583 15.9723 8.66434 16.4138 8.66434 16.9584C8.66434 17.503 9.10583 17.9445 9.65045 17.9445H12.6088C13.1534 17.9445 13.5949 17.503 13.5949 16.9584C13.5949 16.4138 13.1534 15.9723 12.6088 15.9723H9.65045Z" fill="white"/>
</svg>
