<svg width="24" height="24" viewBox="0 0 24 24" fill="none" xmlns="http://www.w3.org/2000/svg">
<path fill-rule="evenodd" clip-rule="evenodd" d="M14.6422 2.2758C14.1859 2.16626 13.7128 2.16648 13.0866 2.16678L9.77828 2.16681C8.98449 2.1668 8.32935 2.16679 7.79567 2.21039C7.24138 2.25568 6.73186 2.35287 6.25326 2.59673C5.51107 2.9749 4.90764 3.57832 4.52948 4.32051C4.28562 4.79911 4.18842 5.30864 4.14314 5.86293C4.09953 6.3966 4.09954 7.05173 4.09956 7.84551V16.2103C4.09954 17.0041 4.09953 17.6592 4.14314 18.1929C4.18842 18.7472 4.28562 19.2567 4.52948 19.7353C4.90764 20.4775 5.51107 21.0809 6.25326 21.4591C6.73186 21.703 7.24138 21.8002 7.79567 21.8455C8.32935 21.8891 8.98447 21.889 9.77825 21.889H14.1986C14.9924 21.889 15.6475 21.8891 16.1812 21.8455C16.7355 21.8002 17.245 21.703 17.7236 21.4591C18.4658 21.0809 19.0692 20.4775 19.4474 19.7353C19.6913 19.2567 19.7885 18.7472 19.8338 18.1929C19.8774 17.6592 19.8773 17.0041 19.8773 16.2103L19.8774 8.95751C19.8777 8.33134 19.8779 7.8582 19.7683 7.40194C19.6717 6.99946 19.5124 6.6147 19.2961 6.26178C19.0509 5.86169 18.7162 5.5273 18.2732 5.08474L16.9594 3.77093C16.5168 3.32795 16.1824 2.99324 15.7824 2.74806C15.4294 2.53179 15.0447 2.37242 14.6422 2.2758ZM12.9746 4.13903H9.819C8.97432 4.13903 8.40011 4.1398 7.95628 4.17606C7.52395 4.21138 7.30286 4.27541 7.14863 4.35399C6.77753 4.54308 6.47582 4.84479 6.28674 5.21588C6.20816 5.37011 6.14413 5.5912 6.10881 6.02353C6.07255 6.46737 6.07178 7.04157 6.07178 7.88625V16.1696C6.07178 17.0143 6.07255 17.5885 6.10881 18.0323C6.14413 18.4646 6.20816 18.6857 6.28674 18.84C6.47582 19.2111 6.77753 19.5128 7.14863 19.7019C7.30286 19.7804 7.52395 19.8445 7.95628 19.8798C8.40011 19.916 8.97432 19.9168 9.819 19.9168H14.1579C15.0026 19.9168 15.5768 19.916 16.0206 19.8798C16.4529 19.8445 16.674 19.7804 16.8283 19.7019C17.1994 19.5128 17.5011 19.2111 17.6902 18.84C17.7687 18.6857 17.8328 18.4646 17.8681 18.0323C17.9043 17.5885 17.9051 17.0143 17.9051 16.1696V9.06953H15.9329C14.299 9.06953 12.9746 7.74504 12.9746 6.11119V4.13903ZM17.4711 7.0973C17.3526 6.95718 17.1634 6.76411 16.8076 6.40829L15.6359 5.23657C15.28 4.8807 15.0869 4.69145 14.9468 4.57294V6.11119C14.9468 6.65581 15.3883 7.0973 15.9329 7.0973H17.4711Z" fill="#E7E8FF"/>
<path d="M10.0162 11.0417C9.47161 11.0417 9.03011 11.4832 9.03011 12.0279C9.03011 12.5725 9.47161 13.014 10.0162 13.014H11.0023V16.9584C11.0023 17.503 11.4438 17.9445 11.9884 17.9445C12.5331 17.9445 12.9746 17.503 12.9746 16.9584V13.014H13.9607C14.5053 13.014 14.9468 12.5725 14.9468 12.0279C14.9468 11.4832 14.5053 11.0417 13.9607 11.0417H10.0162Z" fill="#E7E8FF"/>
</svg>
