<svg width="25" height="25" viewBox="0 0 25 25" fill="none" xmlns="http://www.w3.org/2000/svg">
<path fill-rule="evenodd" clip-rule="evenodd" d="M6.30557 6.63916C6.85018 6.63916 7.29168 7.08066 7.29168 7.62527V15.7114C7.29168 16.5561 7.29245 17.1303 7.32871 17.5741C7.36403 18.0064 7.42806 18.2275 7.50664 18.3818C7.69572 18.7529 7.99744 19.0546 8.36853 19.2436C8.52276 19.3222 8.74385 19.3863 9.17618 19.4216C9.62001 19.4578 10.1942 19.4586 11.0389 19.4586H13.4056C14.2503 19.4586 14.8245 19.4578 15.2683 19.4216C15.7006 19.3863 15.9217 19.3222 16.0759 19.2436C16.447 19.0546 16.7487 18.7529 16.9378 18.3818C17.0164 18.2275 17.0804 18.0064 17.1158 17.5741C17.152 17.1303 17.1528 16.5561 17.1528 15.7114V7.62527C17.1528 7.08066 17.5943 6.63916 18.1389 6.63916C18.6835 6.63916 19.125 7.08066 19.125 7.62527V15.7521C19.125 16.5459 19.125 17.201 19.0814 17.7347C19.0361 18.289 18.939 18.7985 18.6951 19.2771C18.3169 20.0193 17.7135 20.6227 16.9713 21.0009C16.4927 21.2448 15.9832 21.342 15.4289 21.3872C14.8952 21.4309 14.2401 21.4308 13.4463 21.4308H10.9982C10.2044 21.4308 9.54926 21.4309 9.01557 21.3872C8.46128 21.342 7.95176 21.2448 7.47316 21.0009C6.73097 20.6227 6.12754 20.0193 5.74938 19.2771C5.50552 18.7985 5.40833 18.289 5.36304 17.7347C5.31944 17.201 5.31945 16.5459 5.31946 15.7521L5.31946 7.62527C5.31946 7.08066 5.76096 6.63916 6.30557 6.63916Z" fill="#9391A8"/>
<path fill-rule="evenodd" clip-rule="evenodd" d="M12.2222 15.514C11.6776 15.514 11.2361 15.9555 11.2361 16.5001V19.4584H9.26392V16.5001C9.26392 14.8662 10.5884 13.5417 12.2222 13.5417C13.8561 13.5417 15.1806 14.8662 15.1806 16.5001V19.4584H13.2084V16.5001C13.2084 15.9555 12.7669 15.514 12.2222 15.514Z" fill="#9391A8"/>
<path fill-rule="evenodd" clip-rule="evenodd" d="M3.45131 9.05233C3.69487 9.53945 4.2872 9.73689 4.77431 9.49333L12.2222 5.76939L19.6701 9.49333C20.1572 9.73689 20.7495 9.53945 20.9931 9.05233C21.2367 8.56521 21.0392 7.97288 20.5521 7.72932L12.6632 3.78488C12.3856 3.64607 12.0588 3.64607 11.7812 3.78488L3.89231 7.72932C3.40519 7.97288 3.20775 8.56521 3.45131 9.05233Z" fill="#9391A8"/>
</svg>
