<svg width="25" height="24" viewBox="0 0 25 24" fill="none" xmlns="http://www.w3.org/2000/svg">
<path fill-rule="evenodd" clip-rule="evenodd" d="M14.9524 2.2758C14.4961 2.16626 14.023 2.16648 13.3968 2.16678L10.0885 2.16681C9.29469 2.1668 8.63956 2.16679 8.10588 2.21039C7.55159 2.25568 7.04206 2.35287 6.56346 2.59673C5.82127 2.9749 5.21785 3.57832 4.83968 4.32051C4.59582 4.79911 4.49863 5.30864 4.45334 5.86293C4.40974 6.3966 4.40975 7.05173 4.40976 7.84551V16.2103C4.40975 17.0041 4.40974 17.6592 4.45334 18.1929C4.49863 18.7472 4.59582 19.2567 4.83968 19.7353C5.21785 20.4775 5.82127 21.0809 6.56346 21.4591C7.04206 21.703 7.55159 21.8002 8.10588 21.8455C8.63955 21.8891 9.29468 21.889 10.0885 21.889H14.5088C15.3026 21.889 15.9577 21.8891 16.4914 21.8455C17.0457 21.8002 17.5552 21.703 18.0338 21.4591C18.776 21.0809 19.3795 20.4775 19.7576 19.7353C20.0015 19.2567 20.0987 18.7472 20.144 18.1929C20.1876 17.6592 20.1876 17.0041 20.1875 16.2103L20.1876 8.95751C20.1879 8.33134 20.1881 7.8582 20.0786 7.40194C19.9819 6.99946 19.8226 6.6147 19.6063 6.26178C19.3611 5.8617 19.0264 5.5273 18.5834 5.08474L17.2696 3.77093C16.827 3.32795 16.4927 2.99324 16.0926 2.74806C15.7396 2.53179 15.3549 2.37242 14.9524 2.2758ZM13.2848 4.13903H10.1292C9.28452 4.13903 8.71032 4.1398 8.26648 4.17606C7.83415 4.21138 7.61306 4.27541 7.45884 4.35399C7.08774 4.54308 6.78603 4.84479 6.59694 5.21588C6.51836 5.37011 6.45434 5.5912 6.41901 6.02353C6.38275 6.46737 6.38198 7.04157 6.38198 7.88625V16.1696C6.38198 17.0143 6.38275 17.5885 6.41901 18.0323C6.45434 18.4646 6.51836 18.6857 6.59694 18.84C6.78603 19.2111 7.08774 19.5128 7.45884 19.7019C7.61306 19.7804 7.83415 19.8445 8.26648 19.8798C8.71032 19.916 9.28452 19.9168 10.1292 19.9168H14.4681C15.3128 19.9168 15.887 19.916 16.3308 19.8798C16.7631 19.8445 16.9842 19.7804 17.1385 19.7019C17.5096 19.5128 17.8113 19.2111 18.0004 18.84C18.0789 18.6857 18.143 18.4646 18.1783 18.0323C18.2145 17.5885 18.2153 17.0143 18.2153 16.1696V9.06959H16.2431C14.6093 9.06959 13.2848 7.7451 13.2848 6.11125V4.13903ZM17.7814 7.09736C17.6629 6.95723 17.4736 6.76416 17.1178 6.40829L15.9461 5.23657C15.5902 4.8807 15.3971 4.69145 15.257 4.57294V6.11125C15.257 6.65587 15.6985 7.09736 16.2431 7.09736H17.7814Z" fill="#E7E8FF"/>
<path d="M10.3264 13.014C11.4156 13.014 12.2986 12.131 12.2986 11.0418C12.2986 9.95257 11.4156 9.06958 10.3264 9.06958C9.23718 9.06958 8.35419 9.95257 8.35419 11.0418C8.35419 12.131 9.23718 13.014 10.3264 13.014Z" fill="#E7E8FF"/>
<path d="M13.9983 14.2947L15.9539 16.2636C16.5719 16.8858 16.1312 17.9446 15.2543 17.9446H11.315C10.438 17.9446 9.99735 16.8857 10.6154 16.2636L12.571 14.2947C12.9644 13.8987 13.6049 13.8987 13.9983 14.2947Z" fill="#E7E8FF"/>
</svg>
