<svg width="16" height="17" viewBox="0 0 16 17" fill="none" xmlns="http://www.w3.org/2000/svg">
<path d="M9.00696 1.29129C9.00696 0.746677 8.56548 0.305176 8.02085 0.305176C7.47622 0.305176 7.03474 0.746677 7.03474 1.29129V7.20795H1.11807C0.57346 7.20795 0.131958 7.64944 0.131958 8.19406C0.131958 8.73869 0.57346 9.18017 1.11807 9.18017H7.03474V15.0968C7.03474 15.6415 7.47622 16.083 8.02085 16.083C8.56548 16.083 9.00696 15.6415 9.00696 15.0968V9.18017H14.9236C15.4683 9.18017 15.9097 8.73869 15.9097 8.19406C15.9097 7.64944 15.4683 7.20795 14.9236 7.20795H9.00696V1.29129Z" fill="#FCFCFC" style="fill:#FCFCFC;fill:color(display-p3 0.9882 0.9882 0.9882);fill-opacity:1;"/>
</svg>
