<svg width="25" height="25" viewBox="0 0 25 25" fill="none" xmlns="http://www.w3.org/2000/svg">
<path fill-rule="evenodd" clip-rule="evenodd" d="M10.0121 2.80566H14.4324C15.2262 2.80565 15.8814 2.80564 16.415 2.84924C16.9693 2.89453 17.4789 2.99173 17.9574 3.23558C18.6996 3.61375 19.3031 4.21717 19.6812 4.95937C19.9251 5.43796 20.0223 5.94749 20.0676 6.50178C20.1112 7.03546 20.1112 7.69061 20.1112 8.48441V16.8491C20.1112 17.6429 20.1112 18.2981 20.0676 18.8318C20.0223 19.3861 19.9251 19.8956 19.6812 20.3742C19.3031 21.1164 18.6996 21.7198 17.9574 22.098C17.4789 22.3418 16.9693 22.439 16.415 22.4843C15.8814 22.5279 15.2262 22.5279 14.4325 22.5279H10.0121C9.21829 22.5279 8.56316 22.5279 8.02949 22.4843C7.4752 22.439 6.96567 22.3418 6.48708 22.098C5.74488 21.7198 5.14146 21.1164 4.76329 20.3742C4.51944 19.8956 4.42224 19.3861 4.37695 18.8318C4.33335 18.2981 4.33336 17.643 4.33337 16.8492V8.48438C4.33336 7.69059 4.33335 7.03546 4.37695 6.50178C4.42224 5.94749 4.51944 5.43796 4.76329 4.95937C5.14146 4.21717 5.74488 3.61375 6.48708 3.23558C6.96567 2.99173 7.4752 2.89453 8.02949 2.84924C8.56317 2.80564 9.2183 2.80565 10.0121 2.80566ZM8.19009 4.81492C7.75777 4.85024 7.53668 4.91426 7.38245 4.99285C7.01135 5.18193 6.70964 5.48364 6.52056 5.85474C6.44197 6.00897 6.37795 6.23006 6.34263 6.66238C6.30636 7.10622 6.3056 7.68043 6.3056 8.52511V16.8084C6.3056 17.6531 6.30636 18.2273 6.34263 18.6712C6.37795 19.1035 6.44197 19.3246 6.52056 19.4788C6.70964 19.8499 7.01135 20.1516 7.38245 20.3407C7.53668 20.4193 7.75777 20.4833 8.19009 20.5186C8.63393 20.5549 9.20814 20.5557 10.0528 20.5557H14.3917C15.2364 20.5557 15.8106 20.5549 16.2544 20.5186C16.6868 20.4833 16.9079 20.4193 17.0621 20.3407C17.4332 20.1516 17.7349 19.8499 17.924 19.4788C18.0026 19.3246 18.0666 19.1035 18.1019 18.6712C18.1382 18.2273 18.1389 17.6531 18.1389 16.8084V8.52511C18.1389 7.68043 18.1382 7.10622 18.1019 6.66238C18.0666 6.23006 18.0026 6.00897 17.924 5.85474C17.7349 5.48364 17.4332 5.18193 17.0621 4.99285C16.9079 4.91426 16.6868 4.85024 16.2544 4.81492C15.8106 4.77865 15.2364 4.77789 14.3917 4.77789H10.0528C9.20814 4.77789 8.63393 4.77865 8.19009 4.81492Z" fill="#9391A8"/>
<path fill-rule="evenodd" clip-rule="evenodd" d="M12.2223 6.75024C10.0438 6.75024 8.27783 8.51623 8.27783 10.6947C8.27783 12.8731 10.0438 14.6391 12.2223 14.6391C14.4007 14.6391 16.1667 12.8731 16.1667 10.6947C16.1667 8.51623 14.4007 6.75024 12.2223 6.75024ZM10.2501 10.6947C10.2501 9.60546 11.133 8.72247 12.2223 8.72247C13.3115 8.72247 14.1945 9.60546 14.1945 10.6947C14.1945 11.7839 13.3115 12.6669 12.2223 12.6669C11.133 12.6669 10.2501 11.7839 10.2501 10.6947Z" fill="#9391A8"/>
<path d="M9.26394 16.6114C8.71933 16.6114 8.27783 17.0529 8.27783 17.5975C8.27783 18.1421 8.71933 18.5836 9.26394 18.5836H15.1806C15.7252 18.5836 16.1667 18.1421 16.1667 17.5975C16.1667 17.0529 15.7252 16.6114 15.1806 16.6114H9.26394Z" fill="#9391A8"/>
</svg>
