<svg width="25" height="25" viewBox="0 0 25 25" fill="none" xmlns="http://www.w3.org/2000/svg">
<path fill-rule="evenodd" clip-rule="evenodd" d="M9.02595 5.31958H15.4185C16.2123 5.31957 16.8674 5.31956 17.4011 5.36316C17.9554 5.40845 18.4649 5.50564 18.9435 5.7495C19.6857 6.12767 20.2891 6.73109 20.6673 7.47328C20.9112 7.95188 21.0084 8.46141 21.0536 9.0157C21.0973 9.54937 21.0972 10.2045 21.0972 10.9983V15.4187C21.0972 16.2124 21.0973 16.8676 21.0536 17.4012C21.0084 17.9555 20.9112 18.4651 20.6673 18.9437C20.2891 19.6858 19.6857 20.2893 18.9435 20.6674C18.4649 20.9113 17.9554 21.0085 17.4011 21.0538C16.8674 21.0974 16.2123 21.0974 15.4185 21.0974H9.02597C8.23217 21.0974 7.57703 21.0974 7.04335 21.0538C6.48906 21.0085 5.97953 20.9113 5.50093 20.6674C4.75874 20.2893 4.15532 19.6858 3.77715 18.9437C3.53329 18.4651 3.4361 17.9555 3.39081 17.4012C3.34721 16.8676 3.34722 16.2124 3.34723 15.4186V10.9983C3.34722 10.2045 3.34721 9.54938 3.39081 9.0157C3.4361 8.46141 3.53329 7.95188 3.77715 7.47328C4.15532 6.73109 4.75874 6.12767 5.50093 5.7495C5.97953 5.50564 6.48906 5.40845 7.04335 5.36316C7.57702 5.31956 8.23216 5.31957 9.02595 5.31958ZM7.20395 7.32883C6.77162 7.36416 6.55053 7.42818 6.3963 7.50676C6.02521 7.69585 5.7235 7.99756 5.53441 8.36866C5.45583 8.52288 5.3918 8.74397 5.35648 9.1763C5.32022 9.62014 5.31945 10.1943 5.31945 11.039V15.3779C5.31945 16.2226 5.32022 16.7968 5.35648 17.2406C5.3918 17.673 5.45583 17.8941 5.53441 18.0483C5.7235 18.4194 6.02521 18.7211 6.3963 18.9102C6.55053 18.9888 6.77162 19.0528 7.20395 19.0881C7.64779 19.1244 8.22199 19.1251 9.06667 19.1251H15.3778C16.2225 19.1251 16.7967 19.1244 17.2405 19.0881C17.6728 19.0528 17.8939 18.9888 18.0482 18.9102C18.4193 18.7211 18.721 18.4194 18.91 18.0483C18.9886 17.8941 19.0527 17.673 19.088 17.2406C19.1242 16.7968 19.125 16.2226 19.125 15.3779V11.039C19.125 10.1943 19.1242 9.62014 19.088 9.1763C19.0527 8.74397 18.9886 8.52288 18.91 8.36866C18.721 7.99756 18.4193 7.69585 18.0482 7.50676C17.8939 7.42818 17.6728 7.36416 17.2405 7.32883C16.7967 7.29257 16.2225 7.2918 15.3778 7.2918H9.06667C8.22199 7.2918 7.64779 7.29257 7.20395 7.32883Z" fill="#9391A8"/>
<path d="M9.26391 4.33328C9.26391 3.78866 8.82241 3.34717 8.2778 3.34717C7.73318 3.34717 7.29169 3.78866 7.29169 4.33328V6.3055C7.29169 6.85012 7.73318 7.29161 8.2778 7.29161C8.82241 7.29161 9.26391 6.85012 9.26391 6.3055V4.33328Z" fill="#9391A8"/>
<path d="M17.1528 4.33328C17.1528 3.78866 16.7113 3.34717 16.1667 3.34717C15.6221 3.34717 15.1806 3.78866 15.1806 4.33328V6.3055C15.1806 6.85012 15.6221 7.29161 16.1667 7.29161C16.7113 7.29161 17.1528 6.85012 17.1528 6.3055V4.33328Z" fill="#9391A8"/>
<path fill-rule="evenodd" clip-rule="evenodd" d="M8.2778 12.2222C8.82241 12.2222 9.26391 11.7807 9.26391 11.2361C9.26391 10.6915 8.82241 10.25 8.2778 10.25C7.73318 10.25 7.29169 10.6915 7.29169 11.2361C7.29169 11.7807 7.73318 12.2222 8.2778 12.2222ZM13.2084 11.2361C13.2084 11.7807 12.7669 12.2222 12.2222 12.2222C11.6776 12.2222 11.2361 11.7807 11.2361 11.2361C11.2361 10.6915 11.6776 10.25 12.2222 10.25C12.7669 10.25 13.2084 10.6915 13.2084 11.2361ZM17.1528 11.2361C17.1528 11.7807 16.7113 12.2222 16.1667 12.2222C15.6221 12.2222 15.1806 11.7807 15.1806 11.2361C15.1806 10.6915 15.6221 10.25 16.1667 10.25C16.7113 10.25 17.1528 10.6915 17.1528 11.2361ZM13.2084 15.1806C13.2084 15.7252 12.7669 16.1667 12.2222 16.1667C11.6776 16.1667 11.2361 15.7252 11.2361 15.1806C11.2361 14.6359 11.6776 14.1944 12.2222 14.1944C12.7669 14.1944 13.2084 14.6359 13.2084 15.1806ZM8.2778 16.1667C8.82241 16.1667 9.26391 15.7252 9.26391 15.1806C9.26391 14.6359 8.82241 14.1944 8.2778 14.1944C7.73318 14.1944 7.29169 14.6359 7.29169 15.1806C7.29169 15.7252 7.73318 16.1667 8.2778 16.1667Z" fill="#9391A8"/>
</svg>
