<svg width="25" height="25" viewBox="0 0 25 25" fill="none" xmlns="http://www.w3.org/2000/svg">
<path fill-rule="evenodd" clip-rule="evenodd" d="M12.7153 2.47217C13.3951 2.47217 14.0107 2.74734 14.4567 3.19238C14.4739 3.20962 14.491 3.22712 14.5077 3.24487C14.9019 3.66218 15.152 4.21712 15.1783 4.83003L15.1791 4.85072C15.1801 4.87951 15.1806 4.90842 15.1806 4.93745V4.95151C15.1806 4.9916 15.205 5.02763 15.242 5.04298C15.279 5.05835 15.3217 5.05009 15.3501 5.02172L15.36 5.01178C15.3806 4.99125 15.4014 4.97116 15.4224 4.95151L15.4376 4.93745C15.8896 4.52263 16.4588 4.30705 17.0327 4.29072C17.0571 4.29003 17.0815 4.28969 17.1059 4.28972C17.7359 4.29038 18.3658 4.53107 18.8465 5.01178L19.5438 5.70906C20.0245 6.18977 20.2652 6.81961 20.2658 7.44966C20.2658 7.47406 20.2655 7.49846 20.2648 7.52285C20.2485 8.0967 20.0329 8.66593 19.6181 9.11791L19.604 9.13311C19.5844 9.15417 19.5643 9.17497 19.5438 9.19549L19.5338 9.20544C19.5054 9.2338 19.4972 9.2765 19.5126 9.31356C19.5279 9.35058 19.5639 9.37495 19.604 9.37495H19.6181C19.6471 9.37495 19.676 9.37545 19.7048 9.37644L19.7255 9.37724C20.3384 9.40352 20.8933 9.65359 21.3107 10.0478C21.3284 10.0646 21.3459 10.0816 21.3632 10.0989C21.8082 10.5448 22.0834 11.1604 22.0834 11.8402V12.8263C22.0834 13.5062 21.8082 14.1217 21.3632 14.5677C21.3459 14.585 21.3284 14.602 21.3107 14.6188C20.8933 15.013 20.3384 15.263 19.7255 15.2893L19.7048 15.2901C19.676 15.2911 19.6471 15.2916 19.6181 15.2916H19.604C19.5639 15.2916 19.5279 15.316 19.5126 15.353C19.4972 15.3901 19.5054 15.4328 19.5338 15.4611L19.5438 15.4711C19.5643 15.4916 19.5844 15.5124 19.604 15.5334L19.6181 15.5486C20.0329 16.0006 20.2485 16.5699 20.2648 17.1437C20.2655 17.1681 20.2658 17.1925 20.2658 17.2169C20.2652 17.8469 20.0245 18.4768 19.5438 18.9575L18.8465 19.6548C18.3658 20.1355 17.7359 20.3762 17.1059 20.3768C17.0815 20.3769 17.0571 20.3765 17.0327 20.3758C16.4588 20.3595 15.8896 20.1439 15.4376 19.7291L15.4224 19.715C15.4014 19.6954 15.3806 19.6753 15.36 19.6548L15.3501 19.6448C15.3217 19.6165 15.279 19.6082 15.242 19.6236C15.205 19.6389 15.1806 19.675 15.1806 19.715V19.7291C15.1806 19.7581 15.1801 19.7871 15.1791 19.8158L15.1783 19.8365C15.152 20.4494 14.9019 21.0044 14.5077 21.4217C14.491 21.4394 14.474 21.4569 14.4567 21.4742C14.0107 21.9192 13.3951 22.1944 12.7153 22.1944H11.7292C11.0494 22.1944 10.4338 21.9192 9.98784 21.4742C9.97056 21.4569 9.95354 21.4394 9.93677 21.4217C9.54256 21.0044 9.2925 20.4494 9.26622 19.8365L9.26542 19.8158C9.26442 19.7871 9.26392 19.7581 9.26392 19.7291V19.715C9.26392 19.675 9.23956 19.6389 9.20253 19.6236C9.16548 19.6082 9.12278 19.6165 9.09441 19.6448L9.08447 19.6548C9.06394 19.6753 9.04314 19.6954 9.02208 19.715L9.00689 19.7291C8.55491 20.1439 7.98567 20.3595 7.41183 20.3758C7.38744 20.3765 7.36304 20.3769 7.33863 20.3768C6.70859 20.3762 6.07875 20.1355 5.59804 19.6548L4.90075 18.9575C4.42004 18.4768 4.17936 17.8469 4.17869 17.2169C4.17867 17.1925 4.179 17.1681 4.1797 17.1437C4.19603 16.5699 4.41161 16.0006 4.82642 15.5486L4.84049 15.5334C4.86014 15.5124 4.88023 15.4916 4.90075 15.4711L4.9107 15.4611C4.93907 15.4328 4.94733 15.3901 4.93196 15.353C4.9166 15.316 4.88057 15.2916 4.84049 15.2916H4.82642C4.7974 15.2916 4.76848 15.2911 4.7397 15.2901L4.719 15.2893C4.10609 15.263 3.55116 15.013 3.13384 14.6188C3.1161 14.602 3.0986 14.585 3.08136 14.5677C2.63632 14.1217 2.36115 13.5062 2.36115 12.8263V11.8402C2.36115 11.1604 2.63632 10.5448 3.08136 10.0989C3.0986 10.0816 3.1161 10.0646 3.13384 10.0478C3.55116 9.65359 4.1061 9.40352 4.719 9.37724L4.7397 9.37644C4.76848 9.37545 4.79739 9.37495 4.82642 9.37495H4.84049C4.88057 9.37495 4.9166 9.35058 4.93196 9.31356C4.94733 9.2765 4.93907 9.2338 4.9107 9.20544L4.90075 9.19549C4.88023 9.17497 4.86014 9.15417 4.84049 9.13311L4.82642 9.11791C4.41161 8.66593 4.19603 8.0967 4.1797 7.52285C4.179 7.49846 4.17867 7.47406 4.17869 7.44966C4.17936 6.81961 4.42004 6.18977 4.90075 5.70906L5.59804 5.01178C6.07875 4.53107 6.70859 4.29038 7.33863 4.28972C7.36304 4.28969 7.38744 4.29003 7.41183 4.29072C7.98568 4.30705 8.55491 4.52263 9.00689 4.93745L9.02209 4.95151C9.04314 4.97116 9.06394 4.99125 9.08447 5.01178L9.09441 5.02172C9.12278 5.05009 9.16548 5.05835 9.20253 5.04298C9.23956 5.02763 9.26392 4.9916 9.26392 4.95151V4.93745C9.26392 4.90842 9.26442 4.87951 9.26542 4.85072L9.26622 4.83003C9.2925 4.21712 9.54256 3.66218 9.93677 3.24487C9.95354 3.22712 9.97056 3.20962 9.98784 3.19238C10.4338 2.74734 11.0494 2.47217 11.7292 2.47217H12.7153ZM11.2361 19.7291C11.2361 20.0014 11.4569 20.2222 11.7292 20.2222H12.7153C12.9876 20.2222 13.2084 20.0014 13.2084 19.7291V19.715C13.2084 18.8674 13.7223 18.1187 14.4865 17.8018C15.2523 17.4842 16.1457 17.6513 16.7447 18.2503L16.7546 18.2602C16.9472 18.4528 17.2593 18.4528 17.4519 18.2602L18.1492 17.5629C18.3417 17.3704 18.3417 17.0582 18.1492 16.8656L18.1392 16.8557C17.5402 16.2567 17.3732 15.3633 17.6908 14.5975C18.0077 13.8333 18.7564 13.3194 19.604 13.3194H19.6181C19.8904 13.3194 20.1111 13.0986 20.1111 12.8263V11.8402C20.1111 11.5679 19.8904 11.3472 19.6181 11.3472H19.604C18.7564 11.3472 18.0077 10.8332 17.6908 10.069C17.3732 9.30322 17.5402 8.40986 18.1392 7.81086L18.1492 7.80092C18.3417 7.60837 18.3417 7.29619 18.1492 7.10364L17.4519 6.40635C17.2593 6.2138 16.9472 6.2138 16.7546 6.40635L16.7447 6.4163C16.1457 7.01529 15.2523 7.18234 14.4865 6.86478C13.7223 6.54788 13.2084 5.79912 13.2084 4.95151V4.93745C13.2084 4.66514 12.9876 4.44439 12.7153 4.44439H11.7292C11.4569 4.44439 11.2361 4.66514 11.2361 4.93745V4.95151C11.2361 5.79912 10.7222 6.54788 9.95798 6.86478C9.19219 7.18234 8.29884 7.01529 7.69984 6.4163L7.6899 6.40635C7.49735 6.2138 7.18516 6.2138 6.99261 6.40635L6.29533 7.10364C6.10278 7.29619 6.10278 7.60837 6.29533 7.80092L6.30527 7.81086C6.90427 8.40986 7.07132 9.30322 6.75375 10.069C6.43685 10.8332 5.68811 11.3472 4.84049 11.3472H4.82642C4.55412 11.3472 4.33337 11.5679 4.33337 11.8402V12.8263C4.33337 13.0986 4.55412 13.3194 4.82642 13.3194H4.84049C5.68811 13.3194 6.43685 13.8333 6.75375 14.5975C7.07132 15.3633 6.90427 16.2567 6.30527 16.8557L6.29533 16.8656C6.10278 17.0582 6.10278 17.3704 6.29533 17.5629L6.99261 18.2602C7.18516 18.4528 7.49735 18.4528 7.6899 18.2602L7.69984 18.2503C8.29884 17.6513 9.19219 17.4842 9.95799 17.8018C10.7222 18.1187 11.2361 18.8674 11.2361 19.715V19.7291Z" fill="#9391A8"/>
<path fill-rule="evenodd" clip-rule="evenodd" d="M12.2223 14.3056C13.3115 14.3056 14.1945 13.4226 14.1945 12.3334C14.1945 11.2441 13.3115 10.3611 12.2223 10.3611C11.133 10.3611 10.2501 11.2441 10.2501 12.3334C10.2501 13.4226 11.133 14.3056 12.2223 14.3056ZM12.2223 16.2778C14.4007 16.2778 16.1667 14.5118 16.1667 12.3334C16.1667 10.1549 14.4007 8.38892 12.2223 8.38892C10.0438 8.38892 8.27783 10.1549 8.27783 12.3334C8.27783 14.5118 10.0438 16.2778 12.2223 16.2778Z" fill="#9391A8"/>
</svg>
